<svg viewBox="0 0 173.2 200" xmlns="http://www.w3.org/2000/svg">
  <defs>
    <clipPath id="hc"><polygon points="86.6,2 167.6,49 167.6,151 86.6,198 5.6,151 5.6,49"/></clipPath>
  </defs>
  <polygon points="86.6,2 167.6,49 167.6,151 86.6,198 5.6,151 5.6,49" fill="#eef7f3"/>
  <g clip-path="url(#hc)" stroke="#5cb89a" stroke-width="1.6" fill="none" opacity="0.40">
    <path d="M 10 60 Q 60 45 110 65 Q 150 80 170 60"/>
    <path d="M 10 100 Q 60 115 110 97 Q 150 85 170 105"/>
    <path d="M 10 130 Q 60 115 110 135 Q 150 150 170 128"/>
  </g>
  <g transform="translate(86.6,78) scale(2.0)">
    <path d="M -22 12 Q 0 10 22 -10 Q 0 18 -22 13 Z" fill="#5cb89a"/>
    <path d="M -22 -10 Q 0 -10 22 12 Q 0 -18 -22 -11 Z" fill="#e8927d"/>
    <circle cx="-14" cy="0" r="2.6" fill="#2c5f4f"/>
  </g>
  <path d="M723 264Q723 124 634.5 52.0Q546 -20 373 -20Q303 -20 218.5 -5.5Q134 9 86 27V258H131L180 127Q255 59 375 59Q569 59 569 225Q569 347 416 399L327 428Q226 461 180.0 495.0Q134 529 109.0 578.5Q84 628 84 698Q84 822 168.5 893.5Q253 965 397 965Q500 965 655 934V729H608L566 838Q513 885 399 885Q318 885 275.5 845.0Q233 805 233 737Q233 680 271.5 641.0Q310 602 388 576Q535 526 580.0 503.0Q625 480 656.5 446.5Q688 413 705.5 370.0Q723 327 723 264Z" transform="translate(35.452,143.000) scale(0.01318,-0.01318)" fill="#2c5f4f" stroke="#2c5f4f" stroke-width="26.5" stroke-linejoin="round"/>
  <path d="M326 1014Q326 910 319 864Q391 905 482.5 935.0Q574 965 637 965Q759 965 821.0 894.0Q883 823 883 688V70L997 45V0H592V45L717 70V676Q717 848 551 848Q457 848 326 819V70L453 45V0H41V45L160 70V1352L20 1376V1421H326Z" transform="translate(45.560,143.000) scale(0.01318,-0.01318)" fill="#2c5f4f" stroke="#2c5f4f" stroke-width="26.5" stroke-linejoin="round"/>
  <path d="M379 1247Q379 1203 347.0 1171.0Q315 1139 270 1139Q226 1139 194.0 1171.0Q162 1203 162 1247Q162 1292 194.0 1324.0Q226 1356 270 1356Q315 1356 347.0 1324.0Q379 1292 379 1247ZM369 70 530 45V0H43V45L203 70V870L70 895V940H369Z" transform="translate(58.660,143.000) scale(0.01318,-0.01318)" fill="#2c5f4f" stroke="#2c5f4f" stroke-width="26.5" stroke-linejoin="round"/>
  <path d="M324 864Q401 908 488.0 936.5Q575 965 633 965Q755 965 817.0 894.0Q879 823 879 688V70L993 45V0H588V45L713 70V670Q713 753 672.5 800.5Q632 848 547 848Q457 848 326 819V70L453 45V0H47V45L160 70V870L47 895V940H315Z" transform="translate(65.761,143.000) scale(0.01318,-0.01318)" fill="#2c5f4f" stroke="#2c5f4f" stroke-width="26.5" stroke-linejoin="round"/>
  <path d="M199 -442Q121 -442 45 -424V-221H92L125 -317Q156 -340 211 -340Q263 -340 307.0 -310.0Q351 -280 387.5 -221.0Q424 -162 479 -10L121 870L25 895V940H461V895L313 868L567 211L813 870L666 895V940H1016V895L918 874L551 -59Q486 -224 438.0 -296.0Q390 -368 332.0 -405.0Q274 -442 199 -442Z" transform="translate(78.861,143.000) scale(0.01318,-0.01318)" fill="#2c5f4f" stroke="#2c5f4f" stroke-width="26.5" stroke-linejoin="round"/>
  <path d="M264 174Q264 129 286.5 106.5Q309 84 344 84Q417 84 496 114L517 67Q394 -20 268 -20Q189 -20 143.5 28.0Q98 76 98 162Q98 191 103.5 230.5Q109 270 213 856H90L98 901L231 940L368 1153H432L395 940H610L594 856H379L282 307Q264 215 264 174Z" transform="translate(91.961,143.000) scale(0.01318,-0.01318)" fill="#c66b56" stroke="#c66b56" stroke-width="26.5" stroke-linejoin="round"/>
  <path d="M237 340Q237 205 289.5 133.5Q342 62 436 62Q527 62 609.5 135.0Q692 208 740.0 334.5Q788 461 788 606Q788 744 735.5 815.5Q683 887 585 887Q494 887 412.5 814.0Q331 741 284.0 614.5Q237 488 237 340ZM427 -20Q261 -20 161.0 86.5Q61 193 61 374Q61 535 130.0 672.0Q199 809 321.5 887.0Q444 965 597 965Q763 965 863.0 858.5Q963 752 963 571Q963 410 894.0 273.0Q825 136 702.5 58.0Q580 -20 427 -20Z" transform="translate(99.063,143.000) scale(0.01318,-0.01318)" fill="#c66b56" stroke="#c66b56" stroke-width="26.5" stroke-linejoin="round"/>
  <path d="M755 748Q755 793 731.0 821.0Q707 849 655 849Q581 849 493.5 786.0Q406 723 349 630L239 0H73L226 871L108 896L116 941H394L367 749Q451 857 541.0 911.0Q631 965 718 965Q819 965 870.0 910.5Q921 856 921 754Q921 740 917.0 711.0Q913 682 808 69L939 45L931 0H630L732 582Q755 709 755 748Z" transform="translate(112.163,143.000) scale(0.01318,-0.01318)" fill="#c66b56" stroke="#c66b56" stroke-width="26.5" stroke-linejoin="round"/>
  <path d="M863 760Q863 624 695.0 528.0Q527 432 244 413L240 340Q240 213 293.5 148.5Q347 84 452 84Q542 84 618.0 114.5Q694 145 760 184L789 142Q697 64 594.5 22.0Q492 -20 400 -20Q238 -20 150.5 70.5Q63 161 63 330Q63 497 133.5 641.5Q204 786 329.0 875.5Q454 965 591 965Q714 965 788.5 908.5Q863 852 863 760ZM252 476Q450 491 569.0 569.0Q688 647 688 760Q688 816 657.5 852.0Q627 888 569 888Q499 888 433.0 831.0Q367 774 319.0 678.0Q271 582 252 476Z" transform="translate(125.263,143.000) scale(0.01318,-0.01318)" fill="#c66b56" stroke="#c66b56" stroke-width="26.5" stroke-linejoin="round"/>
  <text transform="translate(91.0,189.7) rotate(-30.1)" text-anchor="start" font-family="Helvetica, Arial, sans-serif" font-size="4" fill="#9a9a9a" letter-spacing="0.3">chenzixu.shinyapps.io/shinytone</text>
  <polygon points="86.6,2 167.6,49 167.6,151 86.6,198 5.6,151 5.6,49" fill="none" stroke="#5cb89a" stroke-width="4.5"/>
</svg>